<svg width="24" height="24" viewBox="0 0 24 24" fill="none" xmlns="http://www.w3.org/2000/svg">
<path d="M10.8 2.40002C10.4817 2.40002 10.1765 2.52645 9.95148 2.7515C9.72643 2.97654 9.60001 3.28176 9.60001 3.60002C9.60001 3.91828 9.72643 4.22351 9.95148 4.44855C10.1765 4.6736 10.4817 4.80002 10.8 4.80002H13.2C13.5183 4.80002 13.8235 4.6736 14.0485 4.44855C14.2736 4.22351 14.4 3.91828 14.4 3.60002C14.4 3.28176 14.2736 2.97654 14.0485 2.7515C13.8235 2.52645 13.5183 2.40002 13.2 2.40002H10.8Z" fill="#9CA3AF"/>
<path fill-rule="evenodd" clip-rule="evenodd" d="M4.8 5.99998C4.8 5.36346 5.05286 4.75301 5.50295 4.30292C5.95303 3.85283 6.56348 3.59998 7.2 3.59998C7.2 4.55476 7.57929 5.47043 8.25442 6.14556C8.92955 6.82069 9.84522 7.19998 10.8 7.19998H13.2C14.1548 7.19998 15.0705 6.82069 15.7456 6.14556C16.4207 5.47043 16.8 4.55476 16.8 3.59998C17.4365 3.59998 18.047 3.85283 18.4971 4.30292C18.9471 4.75301 19.2 5.36346 19.2 5.99998V19.2C19.2 19.8365 18.9471 20.4469 18.4971 20.897C18.047 21.3471 17.4365 21.6 16.8 21.6H7.2C6.56348 21.6 5.95303 21.3471 5.50295 20.897C5.05286 20.4469 4.8 19.8365 4.8 19.2V5.99998ZM8.4 10.8C8.08174 10.8 7.77652 10.9264 7.55148 11.1514C7.32643 11.3765 7.2 11.6817 7.2 12C7.2 12.3182 7.32643 12.6235 7.55148 12.8485C7.77652 13.0735 8.08174 13.2 8.4 13.2H8.412C8.73026 13.2 9.03549 13.0735 9.26053 12.8485C9.48558 12.6235 9.612 12.3182 9.612 12C9.612 11.6817 9.48558 11.3765 9.26053 11.1514C9.03549 10.9264 8.73026 10.8 8.412 10.8H8.4ZM12 10.8C11.6817 10.8 11.3765 10.9264 11.1515 11.1514C10.9264 11.3765 10.8 11.6817 10.8 12C10.8 12.3182 10.9264 12.6235 11.1515 12.8485C11.3765 13.0735 11.6817 13.2 12 13.2H15.6C15.9183 13.2 16.2235 13.0735 16.4485 12.8485C16.6736 12.6235 16.8 12.3182 16.8 12C16.8 11.6817 16.6736 11.3765 16.4485 11.1514C16.2235 10.9264 15.9183 10.8 15.6 10.8H12ZM8.4 15.6C8.08174 15.6 7.77652 15.7264 7.55148 15.9515C7.32643 16.1765 7.2 16.4817 7.2 16.8C7.2 17.1182 7.32643 17.4235 7.55148 17.6485C7.77652 17.8736 8.08174 18 8.4 18H8.412C8.73026 18 9.03549 17.8736 9.26053 17.6485C9.48558 17.4235 9.612 17.1182 9.612 16.8C9.612 16.4817 9.48558 16.1765 9.26053 15.9515C9.03549 15.7264 8.73026 15.6 8.412 15.6H8.4ZM12 15.6C11.6817 15.6 11.3765 15.7264 11.1515 15.9515C10.9264 16.1765 10.8 16.4817 10.8 16.8C10.8 17.1182 10.9264 17.4235 11.1515 17.6485C11.3765 17.8736 11.6817 18 12 18H15.6C15.9183 18 16.2235 17.8736 16.4485 17.6485C16.6736 17.4235 16.8 17.1182 16.8 16.8C16.8 16.4817 16.6736 16.1765 16.4485 15.9515C16.2235 15.7264 15.9183 15.6 15.6 15.6H12Z" fill="#9CA3AF"/>
</svg>
