<svg width="24" height="21" viewBox="0 0 24 21" fill="none" xmlns="http://www.w3.org/2000/svg">
<path d="M0.293283 9.29273L9.29299 0.293032C9.48062 0.105397 9.73511 -1.52583e-05 10.0005 -1.52583e-05C10.2658 -1.52583e-05 10.5203 0.105397 10.7079 0.293032C10.8956 0.480666 11.001 0.735154 11.001 1.00051C11.001 1.26586 10.8956 1.52035 10.7079 1.70799L3.41443 9.00025L23 9.00025C23.2652 9.00025 23.5196 9.1056 23.7071 9.29313C23.8946 9.48066 24 9.735 24 10.0002C24 10.2654 23.8946 10.5198 23.7071 10.7073C23.5196 10.8948 23.2652 11.0002 23 11.0002L3.41443 11.0002L10.7079 18.2924C10.8956 18.4801 11.001 18.7346 11.001 18.9999C11.001 19.2653 10.8956 19.5198 10.7079 19.7074C10.5203 19.895 10.2658 20.0004 10.0005 20.0004C9.73511 20.0004 9.48062 19.895 9.29299 19.7074L0.293283 10.7077C0.200311 10.6148 0.126552 10.5045 0.0762304 10.3831C0.0259086 10.2617 7.62914e-06 10.1316 7.62914e-06 10.0002C7.62914e-06 9.8688 0.0259086 9.73868 0.0762304 9.61728C0.126552 9.49589 0.200311 9.3856 0.293283 9.29273Z" fill="#A9B0B2"/>
</svg>
