<svg width="16" height="16" viewBox="0 0 16 16" fill="none" xmlns="http://www.w3.org/2000/svg">
<path d="M9.69708 6.49696C9.24699 6.94705 8.63654 7.1999 8.00002 7.1999C7.36351 7.1999 6.75306 6.94705 6.30297 6.49696C5.85288 6.04687 5.60002 5.43642 5.60002 4.7999C5.60002 4.16338 5.85288 3.55293 6.30297 3.10285C6.75306 2.65276 7.36351 2.3999 8.00002 2.3999C8.63654 2.3999 9.24699 2.65276 9.69708 3.10285C10.1472 3.55293 10.4 4.16338 10.4 4.7999C10.4 5.43642 10.1472 6.04687 9.69708 6.49696Z" fill="#E0211D"/>
<path d="M5.857 9.22618C5.17757 9.5076 4.74708 9.88037 4.04023 10.4401C2.15892 11.9298 4.34537 14.3999 6.74509 14.3999H9.20663C11.633 14.3999 13.6756 12.1558 11.9598 10.4401C11.4398 9.9201 10.8225 9.5076 10.1431 9.22618C9.46363 8.94475 8.73543 8.7999 8.00002 8.7999C7.26462 8.7999 6.53642 8.94475 5.857 9.22618Z" fill="#E0211D"/>
</svg>
