<svg width="16" height="16" viewBox="0 0 16 16" fill="none" xmlns="http://www.w3.org/2000/svg">
<path fill-rule="evenodd" clip-rule="evenodd" d="M14.4 6.40011C14.4002 7.14985 14.2248 7.88921 13.8878 8.55895C13.5508 9.22869 13.0616 9.81017 12.4595 10.2568C11.8573 10.7034 11.1589 11.0028 10.4201 11.1309C9.68143 11.259 8.92298 11.2123 8.20558 10.9945L7.99998 11.2001L7.19998 12.0001L6.39998 12.8001H4.79998V14.4001H1.59998V11.2001L5.00558 7.79451C4.80593 7.13452 4.75083 6.43927 4.84401 5.75607C4.93719 5.07287 5.17647 4.41777 5.54557 3.83535C5.91466 3.25293 6.40491 2.75687 6.98293 2.38092C7.56095 2.00498 8.21319 1.75799 8.89524 1.65675C9.57729 1.55552 10.2731 1.60242 10.9354 1.79426C11.5977 1.9861 12.2109 2.31838 12.7333 2.76848C13.2556 3.21858 13.6749 3.77594 13.9625 4.40262C14.2501 5.0293 14.3993 5.71059 14.4 6.40011ZM9.59998 3.20011C9.3878 3.20011 9.18432 3.2844 9.03429 3.43442C8.88426 3.58445 8.79998 3.78794 8.79998 4.00011C8.79998 4.21228 8.88426 4.41577 9.03429 4.56579C9.18432 4.71582 9.3878 4.80011 9.59998 4.80011C10.0243 4.80011 10.4313 4.96868 10.7313 5.26874C11.0314 5.5688 11.2 5.97576 11.2 6.40011C11.2 6.61228 11.2843 6.81577 11.4343 6.9658C11.5843 7.11582 11.7878 7.20011 12 7.20011C12.2121 7.20011 12.4156 7.11582 12.5657 6.9658C12.7157 6.81577 12.8 6.61228 12.8 6.40011C12.8 5.55142 12.4628 4.73748 11.8627 4.13737C11.2626 3.53725 10.4487 3.20011 9.59998 3.20011Z" fill="#3B82F6"/>
</svg>
