<svg width="24" height="24" viewBox="0 0 24 24" fill="none" xmlns="http://www.w3.org/2000/svg">
<path fill-rule="evenodd" clip-rule="evenodd" d="M21.6 5.99998V15.6C21.6 16.2365 21.3472 16.8469 20.8971 17.297C20.447 17.7471 19.8365 18 19.2 18H13.2L8.82473 21.5002C8.16996 22.024 7.20003 21.5579 7.20003 20.7194V18H4.80003C4.16351 18 3.55306 17.7471 3.10298 17.297C2.65289 16.8469 2.40003 16.2365 2.40003 15.6V5.99998C2.40003 5.36346 2.65289 4.75301 3.10298 4.30292C3.55306 3.85283 4.16351 3.59998 4.80003 3.59998H19.2C19.8365 3.59998 20.447 3.85283 20.8971 4.30292C21.3472 4.75301 21.6 5.36346 21.6 5.99998ZM8.40003 9.59998H6.00003V12H8.40003V9.59998ZM10.8 9.59998H13.2V12H10.8V9.59998ZM18 9.59998H15.6V12H18V9.59998Z" fill="#9CA3AF"/>
</svg>
